<svg width="40" height="40" viewBox="0 0 40 40" fill="none" xmlns="http://www.w3.org/2000/svg">
<path d="M20 1C31.0275 1 40 8.28 40 17.23C40 20.8125 38.6125 24.0375 35.7125 27.215C31.5175 32.045 22.135 37.9275 20 38.8275C17.925 39.7025 18.165 38.335 18.26 37.795L18.2675 37.75L18.5525 36.0375C18.62 35.5275 18.69 34.735 18.4875 34.23C18.2625 33.6725 17.3775 33.3825 16.7275 33.2425C7.115 31.975 0 25.2525 0 17.23C0 8.28 8.975 1 20 1ZM12.555 20.215H8.7425V13.295C8.7425 13.192 8.70176 13.0932 8.62916 13.0201C8.55656 12.947 8.458 12.9057 8.355 12.905H6.95C6.89878 12.905 6.84807 12.9151 6.80075 12.9347C6.75344 12.9543 6.71044 12.983 6.67423 13.0192C6.63801 13.0554 6.60929 13.0984 6.58969 13.1458C6.57009 13.1931 6.56 13.2438 6.56 13.295V22.01C6.56 22.1125 6.6025 22.21 6.67 22.2775V22.28L6.675 22.285L6.68 22.29C6.71559 22.325 6.7578 22.3525 6.80416 22.371C6.85053 22.3894 6.90011 22.3984 6.95 22.3975H12.555C12.77 22.3975 12.9425 22.2225 12.9425 22.0075V20.6075C12.9428 20.5563 12.9331 20.5055 12.9138 20.4581C12.8945 20.4106 12.866 20.3674 12.83 20.331C12.7941 20.2945 12.7512 20.2655 12.7041 20.2456C12.6569 20.2257 12.6062 20.2153 12.555 20.215ZM14.5325 12.905C14.4291 12.905 14.3299 12.9461 14.2567 13.0192C14.1836 13.0924 14.1425 13.1916 14.1425 13.295V22.01C14.1425 22.225 14.3175 22.3975 14.5325 22.3975H15.9375C16.1525 22.3975 16.325 22.2225 16.325 22.01V13.295C16.325 13.192 16.2843 13.0932 16.2117 13.0201C16.1391 12.947 16.0405 12.9057 15.9375 12.905H14.5325ZM24.19 12.905C24.0866 12.905 23.9874 12.9461 23.9142 13.0192C23.8411 13.0924 23.8 13.1916 23.8 13.295V18.47L19.8075 13.08L19.775 13.0425L19.75 13.015L19.7425 13.0075L19.715 12.985L19.7 12.975L19.6925 12.97L19.68 12.9625L19.66 12.95H19.655L19.6475 12.945L19.6225 12.935L19.6125 12.93L19.5875 12.9225H19.5825L19.575 12.92L19.5525 12.915H19.5375L19.53 12.9125H19.52L19.515 12.91H18.08C17.977 12.91 17.8782 12.9507 17.8051 13.0233C17.732 13.0959 17.6907 13.1945 17.69 13.2975V22.0125C17.69 22.2275 17.865 22.4 18.08 22.4H19.48C19.6975 22.4 19.8725 22.225 19.8725 22.0125V16.8375L23.8725 22.2375C23.9005 22.2735 23.9333 22.3054 23.97 22.3325L23.9725 22.335L23.9975 22.35L24.0075 22.355L24.0275 22.365L24.045 22.3725L24.0575 22.3775L24.0825 22.385H24.09C24.1227 22.3934 24.1562 22.3984 24.19 22.4H25.59C25.8075 22.4 25.9825 22.225 25.9825 22.0125V13.295C25.9825 13.1916 25.9414 13.0924 25.8683 13.0192C25.7951 12.9461 25.6959 12.905 25.5925 12.905H24.19ZM33.7275 14.6975V13.2975C33.7278 13.2463 33.7181 13.1955 33.6988 13.1481C33.6795 13.1006 33.651 13.0574 33.615 13.021C33.5791 12.9845 33.5363 12.9555 33.4891 12.9356C33.4419 12.9157 33.3912 12.9053 33.34 12.905H27.735C27.6344 12.9064 27.538 12.9457 27.465 13.015H27.4625L27.46 13.02L27.455 13.0275C27.3863 13.0998 27.347 13.1952 27.345 13.295V22.01C27.345 22.1125 27.3875 22.21 27.455 22.2775L27.46 22.285L27.465 22.29C27.5383 22.3584 27.6347 22.3968 27.735 22.3975H33.34C33.555 22.3975 33.7275 22.2225 33.7275 22.0075V20.6075C33.7278 20.5563 33.7181 20.5055 33.6988 20.4581C33.6795 20.4106 33.651 20.3674 33.615 20.331C33.5791 20.2945 33.5363 20.2655 33.4891 20.2456C33.4419 20.2257 33.3912 20.2153 33.34 20.215H29.525V18.7425H33.3375C33.5525 18.7425 33.725 18.5675 33.725 18.3525V16.9525C33.7253 16.9013 33.7156 16.8505 33.6963 16.8031C33.677 16.7556 33.6485 16.7124 33.6125 16.676C33.5766 16.6395 33.5337 16.6105 33.4866 16.5906C33.4394 16.5707 33.3887 16.5603 33.3375 16.56H29.525V15.0875H33.3375C33.5525 15.0875 33.725 14.9125 33.725 14.6975H33.7275Z" fill="white"/>
</svg>
